<?xml version="1.0" encoding="utf-8"?>
<!-- Generator: Adobe Illustrator 24.0.0, SVG Export Plug-In . SVG Version: 6.00 Build 0)  -->
<svg version="1.1" id="Layer_1" xmlns="http://www.w3.org/2000/svg" xmlns:xlink="http://www.w3.org/1999/xlink" x="0px" y="0px"
	 viewBox="0 0 68 69.4" style="enable-background:new 0 0 68 69.4;" xml:space="preserve">
<style type="text/css">
	.st0{fill:#1877F2;}
	.st1{fill:#FFFFFF;}
</style>
<g>
	<path class="st0" d="M38.1,67.9L38.1,67.9c16.6-2,29.5-16.1,29.5-33.3C67.6,16,52.6,1,34,1S0.4,16,0.4,34.6
		c0,15.8,10.8,29,25.5,32.6v0v0v-0.4"/>
	<path class="st1" d="M39.1,26.1c0.5-0.7,1.1-1.3,1.9-1.7c1.2-0.6,2.7-0.9,4.7-0.9c0.7,0,1.4,0,2.1,0c0.6,0,1.2,0,1.8,0.1v-9.3
		c-1-0.3-2.1-0.4-3.2-0.5c-1.4-0.2-3-0.3-4.1-0.3c-11.2,0-16.4,5.3-16.4,16.7v4.4H19v10.3h6.9v21.1l0,1.1c2.6,0.7,5.3,1,8,1
		c1.4,0,2.8-0.1,4.2-0.3l0-1.2V44.9h9.1l0.8-4.4l1.1-5.9h-11V31C38.1,28.9,38.4,27.3,39.1,26.1z"/>
</g>
<line class="st1" x1="989.6" y1="7660.7" x2="989.6" y2="7577.2"/>
</svg>
