<!-- Generator: Adobe Illustrator 24.0.0, SVG Export Plug-In  -->
<svg version="1.1" xmlns="http://www.w3.org/2000/svg" xmlns:xlink="http://www.w3.org/1999/xlink" x="0px" y="0px" width="80.36px"
	 height="60.29px" viewBox="0 0 80.36 60.29" style="enable-background:new 0 0 80.36 60.29;" xml:space="preserve">
<style type="text/css">
	.st0{fill:none;}
	.st1{fill:#4385F5;}
	.st2{fill:#34A853;}
	.st3{fill:#FCBC05;}
	.st4{fill:#EB4336;}
	.st5{fill:#C62220;}
</style>
<defs>
</defs>
<g>
	<polygon class="st0" points="62.1,29.16 65.92,26.36 62.1,29.16 	"/>
	<path class="st1" d="M18.25,29.23L0,15.84v38.96c0,0,0,0,0,0c0,3.03,2.45,5.48,5.48,5.48h12.79V29.25L18.25,29.23L18.25,29.23z"/>
	<path class="st2" d="M80.25,15.84L80.25,15.84L80.25,15.84L65.92,26.36l-3.82,2.8l0,0.01l0,0v31.12h12.79
		c3.03,0,5.48-2.45,5.48-5.48L80.25,15.84z"/>
	<path class="st3" d="M65.92,26.36l14.33-10.52v-7.6c0-6.77-7.73-10.64-13.15-6.58L61.99,5.5v1.14l0.11,22.52L65.92,26.36z"/>
	<polygon class="st3" points="80.25,15.84 80.25,15.84 65.92,26.36 	"/>
	<polygon class="st4" points="62.1,29.16 62.1,29.16 61.99,29.24 61.99,6.64 61.98,5.51 40.17,21.93 18.27,5.51 18.27,29.24 
		18.27,29.25 40.17,45.68 62.1,29.17 62.1,29.16 	"/>
	<polygon class="st4" points="18.25,29.23 18.25,29.24 18.27,29.25 18.27,29.24 	"/>
	<polygon class="st4" points="62.1,29.16 62.1,29.16 62.1,29.17 62.1,29.16 	"/>
	<polygon class="st4" points="62.1,29.16 61.99,6.64 61.99,29.24 	"/>
	<path class="st5" d="M18.25,5.5l0.01,0.01V5.5l-5.12-3.84C7.73-2.41,0,1.46,0,8.24v7.61l18.25,13.39V5.5z"/>
	<polygon class="st5" points="18.25,29.23 18.27,29.24 18.27,5.51 18.25,5.5 	"/>
</g>
</svg>
