<!-- Generator: Adobe Illustrator 24.0.0, SVG Export Plug-In  -->
<svg version="1.1" xmlns="http://www.w3.org/2000/svg" xmlns:xlink="http://www.w3.org/1999/xlink" x="0px" y="0px" width="76.12px"
	 height="53.63px" viewBox="0 0 76.12 53.63" style="enable-background:new 0 0 76.12 53.63;" xml:space="preserve">
<style type="text/css">
	.st0{fill:none;}
	.st1{fill:#FFFFFF;}
	.st2{fill:#FF0000;}
</style>
<defs>
</defs>
<g>
	<polygon class="st0" points="30.27,38.13 37.3,34.13 30.27,38 	"/>
	<polygon class="st0" points="50.17,26.82 46.28,24.6 50.06,26.87 	"/>
	<polygon class="st1" points="46.28,24.6 30.27,15.5 30.27,38 37.3,34.13 50.06,26.87 	"/>
	<path class="st2" d="M74.53,8.38c-0.88-3.3-3.44-5.88-6.73-6.77C61.86,0,38.06,0,38.06,0S14.26,0,8.32,1.6
		C5.03,2.5,2.47,5.08,1.59,8.38C0,14.35,0,26.82,0,26.82s0,12.46,1.59,18.44c0.88,3.3,3.44,5.88,6.73,6.77
		c5.93,1.6,29.74,1.6,29.74,1.6s23.8,0,29.74-1.6c3.29-0.9,5.86-3.48,6.73-6.77c1.59-5.98,1.59-18.44,1.59-18.44
		S76.12,14.35,74.53,8.38z M37.3,34.13l-7.03,4V38V15.5V15l16,9.6l3.89,2.21l-0.1,0.06L50.27,27L37.3,34.13z"/>
	<polygon class="st2" points="30.27,15 30.27,15.5 46.28,24.6 	"/>
	<polygon class="st2" points="37.3,34.13 50.27,27 50.06,26.87 	"/>
</g>
</svg>

